# File created by Blade
# Date/Time:  Tue Sep 30 19:28:49 2014
#---------------------------------------------------------
:version 1.10
:name HOM
:units
  mass 1.0
  length 1.000000
  angle deg
:documentation
     Acclaim Skeleton File
:root
   axis xyz
   order TX TY TZ RX RY RZ
   position 0.000000 0.000000 0.000000
   orientation 0 0 0
:bonedata
   begin
      id 1
      name RightUpLeg_dum
      direction -1.000000 0.000000 0.000000
      length 3.766986
      axis 0.0 0.0 0.0 xyz
   end
   begin
      id 2
      name LeftUpLeg_dum
      direction 1.000000 0.000000 0.000000
      length 3.766986
      axis 0.0 0.0 0.0 xyz
   end
   begin
      id 3
      name Spine_dum
      direction 0.000000 1.000000 0.000000
      length 7.779697
      axis 0.0 0.0 0.0 xyz
   end
   begin
      id 4
      name RightUpLeg
      direction 0.000000 -1.000000 0.000000
      length 18.017682
      axis 0.0 0.0 0.0 xyz
      dof rx ry rz
   end
   begin
      id 5
      name RightLeg
      direction 0.000000 -1.000000 0.000000
      length 16.881075
      axis 0.0 0.0 0.0 xyz
      dof rx ry rz
   end
   begin
      id 6
      name RightFoot
      direction 0.000000 -0.258819 0.965926
      length 5.770812
      axis 15.0 0.0 0.0 xyz
      dof rx ry rz
   end
   begin
      id 7
      name RightToeBase
      direction 0.000000 0.000000 1.000000
      length 2.952750
      axis 0.0 0.0 0.0 xyz
      dof rx ry rz
   end
   begin
      id 8
      name LeftUpLeg
      direction 0.000000 -1.000000 0.000000
      length 18.017682
      axis 0.0 0.0 0.0 xyz
      dof rx ry rz
   end
   begin
      id 9
      name LeftLeg
      direction 0.000000 -1.000000 0.000000
      length 16.881075
      axis 0.0 0.0 0.0 xyz
      dof rx ry rz
   end
   begin
      id 10
      name LeftFoot
      direction 0.000000 -0.258819 0.965926
      length 5.770812
      axis 15.0 0.0 0.0 xyz
      dof rx ry rz
   end
   begin
      id 11
      name LeftToeBase
      direction 0.000000 0.000000 1.000000
      length 2.952750
      axis 0.0 0.0 0.0 xyz
      dof rx ry rz
   end
   begin
      id 12
      name Spine
      direction 0.000000 1.000000 0.000000
      length 0.000000
      axis 0.0 0.0 0.0 xyz
      dof rx ry rz
   end
   begin
      id 13
      name Spine_dum1
      direction 0.000000 1.000000 0.000000
      length 10.941760
      axis 0.0 0.0 0.0 xyz
   end
   begin
      id 14
      name Spine_dum2
      direction 0.000000 1.000000 0.000000
      length 10.941760
      axis 0.0 0.0 0.0 xyz
   end
   begin
      id 15
      name Spine_dum3
      direction 0.000000 1.000000 0.000000
      length 16.646042
      axis 0.0 0.0 0.0 xyz
   end
   begin
      id 16
      name RightShoulder
      direction -1.000000 0.000000 0.000000
      length 7.708937
      axis 0.0 0.0 90.0 xyz
      dof rx ry rz
   end
   begin
      id 17
      name RightArm
      direction -1.000000 0.000000 0.000000
      length 11.521345
      axis 0.0 0.0 90.0 xyz
      dof rx ry rz
   end
   begin
      id 18
      name RightForeArm
      direction -1.000000 0.000000 0.000000
      length 10.175898
      axis 0.0 0.0 90.0 xyz
      dof ry rz rx
   end
   begin
      id 19
      name RightHand
      direction -1.000000 0.000000 0.000000
      length 0.000000
      axis 0.0 0.0 90.0 xyz
      dof rx ry rz
   end
   begin
      id 20
      name RightHand_dum1
      direction -1.000000 0.000000 0.000000
      length 3.937000
      axis 0.0 0.0 90.0 xyz
   end
   begin
      id 21
      name RightHand_dum2
      direction 0.000000 0.000000 0.000000
      length 0.000000
      axis 0.0 0.0 90.0 xyz
   end
   begin
      id 22
      name RightHandThumb1
      direction 0.000000 0.000000 1.000000
      length 3.937000
      axis 0.0 0.0 90.0 xyz
      dof rx rz ry
   end
   begin
      id 23
      name LeftShoulder
      direction 1.000000 0.000000 0.000000
      length 7.708937
      axis 0.0 0.0 -90.0 xyz
      dof rx ry rz
   end
   begin
      id 24
      name LeftArm
      direction 1.000000 0.000000 0.000000
      length 11.521345
      axis 0.0 0.0 -90.0 xyz
      dof rx ry rz
   end
   begin
      id 25
      name LeftForeArm
      direction 1.000000 0.000000 0.000000
      length 10.175898
      axis 0.0 0.0 -90.0 xyz
      dof ry rz rx
   end
   begin
      id 26
      name LeftHand
      direction 1.000000 0.000000 0.000000
      length 0.000000
      axis 0.0 0.0 -90.0 xyz
      dof rx ry rz
   end
   begin
      id 27
      name LeftHand_dum1
      direction 1.000000 0.000000 0.000000
      length 3.937000
      axis 0.0 0.0 -90.0 xyz
   end
   begin
      id 28
      name LeftHand_dum2
      direction 0.000000 0.000000 0.000000
      length 0.000000
      axis 0.0 0.0 -90.0 xyz
   end
   begin
      id 29
      name LeftHandThumb1
      direction 0.000000 0.000000 1.000000
      length 3.937000
      axis 0.0 0.0 -90.0 xyz
      dof rx rz ry
   end
   begin
      id 30
      name Head
      direction 0.000000 1.000000 0.000000
      length 4.527550
      axis 0.0 0.0 0.0 xyz
      dof rx ry rz
   end
:hierarchy
   begin
      root RightUpLeg_dum LeftUpLeg_dum Spine_dum
      RightUpLeg_dum RightUpLeg
      LeftUpLeg_dum LeftUpLeg
      Spine_dum Spine
      RightUpLeg RightLeg
      RightLeg RightFoot
      RightFoot RightToeBase
      LeftUpLeg LeftLeg
      LeftLeg LeftFoot
      LeftFoot LeftToeBase
      Spine Spine_dum1 Spine_dum2 Spine_dum3
      Spine_dum1 RightShoulder
      Spine_dum2 LeftShoulder
      Spine_dum3 Head
      RightShoulder RightArm
      RightArm RightForeArm
      RightForeArm RightHand
      RightHand RightHand_dum1 RightHand_dum2
      RightHand_dum2 RightHandThumb1
      LeftShoulder LeftArm
      LeftArm LeftForeArm
      LeftForeArm LeftHand
      LeftHand LeftHand_dum1 LeftHand_dum2
      LeftHand_dum2 LeftHandThumb1
   end

# File created by Blade
# Date/Time:  Mon Sep 22 15:50:36 2014
# Frame Rate: 120.000 fps
#------------------------------------------------------
:FULLY-SPECIFIED
:DEGREES
580
root 2.527118 36.988253 2.895708 -3.440165 -4.049634 1.945012
RightUpLeg 10.873970 -4.410267 -4.751508
RightLeg -4.744891 -0.000000 0.000000
RightFoot -12.722499 -15.480386 15.582018
RightToeBase 14.763283 -0.000000 -0.000000
LeftUpLeg 10.208619 2.949715 0.677248
LeftLeg -2.852805 -0.000000 0.000000
LeftFoot -10.419639 13.941806 -16.761196
LeftToeBase 9.437767 -0.000000 -0.000000
Spine 1.805952 -20.092505 -5.085008
RightShoulder 14.019156 -24.937979 -11.714553
RightArm 33.894875 -36.158481 54.550422
RightForeArm 16.015745 -0.000000 27.799466
RightHand 2.967185 -0.000000 0.272770
RightHandThumb1 -24.326973 -0.000000 -32.862282
LeftShoulder 8.110537 11.821488 23.134071
LeftArm 76.859002 15.940931 -105.721783
LeftForeArm -40.111302 -0.000000 124.796085
LeftHand -4.601996 -0.000000 0.396354
LeftHandThumb1 -26.253704 0.000000 33.147579
Head 2.252943 35.724807 6.784452
581
root 2.538239 36.989767 2.897187 -3.421598 -3.784125 1.997709
RightUpLeg 10.896047 -4.566527 -4.819667
RightLeg -4.729636 -0.000000 0.000000
RightFoot -12.795218 -15.573064 15.642087
RightToeBase 14.795317 -0.000000 -0.000000
LeftUpLeg 10.169272 2.827782 0.613672
LeftLeg -2.882086 -0.000000 0.000000
LeftFoot -10.318883 13.807386 -16.752685
LeftToeBase 9.390003 -0.000000 -0.000000
Spine 1.809904 -20.855858 -5.194459
RightShoulder 14.376230 -24.670599 -11.834479
RightArm 34.310922 -36.491892 54.180385
RightForeArm 16.007288 -0.000000 27.560786
RightHand 2.895261 -0.000000 0.204112
RightHandThumb1 -24.326973 -0.000000 -32.862282
LeftShoulder 8.467341 11.587366 23.278347
LeftArm 76.806874 16.670785 -105.158757
LeftForeArm -40.024712 -0.000000 124.552771
LeftHand -4.702346 -0.000000 0.480493
LeftHandThumb1 -26.253704 0.000000 33.147579
Head 1.913400 36.553456 6.151111
582
root 2.548531 36.989733 2.897482 -3.404383 -3.527514 2.059363
RightUpLeg 10.938912 -4.688740 -4.891194
RightLeg -4.759581 -0.000000 0.000000
RightFoot -12.857348 -15.712762 15.680888
RightToeBase 14.814843 -0.000000 -0.000000
LeftUpLeg 10.133521 2.693980 0.541887
LeftLeg -2.915016 -0.000000 0.000000
LeftFoot -10.222939 13.693834 -16.716010
LeftToeBase 9.390843 -0.000000 -0.000000
Spine 1.816168 -21.713915 -5.293553
RightShoulder 14.764783 -24.429515 -11.998024
RightArm 34.872643 -36.816979 53.723943
RightForeArm 15.898698 0.000000 27.288367
RightHand 2.833758 0.000000 0.300085
RightHandThumb1 -24.326973 -0.000000 -32.862282
LeftShoulder 8.701017 11.449521 23.399578
LeftArm 76.858407 17.285430 -104.545207
LeftForeArm -40.131777 -0.000000 124.242681
LeftHand -4.491344 0.000000 -0.027790
LeftHandThumb1 -26.253704 0.000000 33.147579
Head 1.573191 37.608698 5.478036
583
root 2.556958 36.991087 2.897869 -3.344061 -3.305429 2.126420
RightUpLeg 10.918824 -4.844063 -4.967463
RightLeg -4.762966 -0.000000 0.000000
RightFoot -12.895917 -15.807206 15.664369
RightToeBase 14.758109 -0.000000 -0.000000
LeftUpLeg 10.063163 2.585608 0.467372
LeftLeg -2.958540 -0.000000 0.000000
LeftFoot -10.124287 13.576813 -16.737970
LeftToeBase 9.417122 -0.000000 -0.000000
Spine 1.801996 -22.794072 -5.338103
RightShoulder 15.267588 -24.121673 -12.234986
RightArm 35.484511 -37.121460 53.288568
RightForeArm 15.863411 -0.000000 27.025685
RightHand 2.791407 0.000000 0.234280
RightHandThumb1 -24.326973 -0.000000 -32.862282
LeftShoulder 8.502252 11.412837 23.362105
LeftArm 76.953069 17.896073 -103.799940
LeftForeArm -40.350310 -0.000000 123.849266
LeftHand -4.353560 -0.000000 -0.343075
LeftHandThumb1 -26.253704 0.000000 33.147579
Head 1.131567 39.203303 4.674022
584
root 2.565205 36.991708 2.897052 -3.314198 -3.137847 2.190323
RightUpLeg 10.910965 -4.917070 -5.034133
RightLeg -4.753722 -0.000000 0.000000
RightFoot -12.968611 -15.912522 15.697419
RightToeBase 14.783823 -0.000000 -0.000000
LeftUpLeg 10.032754 2.506125 0.397288
LeftLeg -3.009691 -0.000000 0.000000
LeftFoot -10.038965 13.482040 -16.764375
LeftToeBase 9.424478 -0.000000 -0.000000
Spine 1.788713 -23.696328 -5.409294
RightShoulder 15.694421 -23.903187 -12.400827
RightArm 36.049535 -37.295052 52.897745
RightForeArm 15.572039 0.000000 26.789006
RightHand 2.824493 -0.000000 0.379520
RightHandThumb1 -24.326973 -0.000000 -32.862282
LeftShoulder 8.503087 11.476673 23.436868
LeftArm 77.197009 18.364715 -103.034077
LeftForeArm -40.602296 -0.000000 123.444609
LeftHand -4.231190 -0.000000 -0.575405
LeftHandThumb1 -26.253704 0.000000 33.147579
Head 0.614229 40.136282 3.719699
585
root 2.576758 36.991852 2.898455 -3.323809 -2.994240 2.227232
RightUpLeg 10.946309 -4.987894 -5.080558
RightLeg -4.750085 -0.000000 0.000000
RightFoot -13.009355 -16.022152 15.698184
RightToeBase 14.777668 -0.000000 -0.000000
LeftUpLeg 10.055285 2.416176 0.347840
LeftLeg -3.073274 -0.000000 0.000000
LeftFoot -9.975547 13.421710 -16.790719
LeftToeBase 9.446837 -0.000000 -0.000000
Spine 1.822127 -24.023088 -5.470861
RightShoulder 15.497963 -23.796600 -12.247787
RightArm 36.552599 -37.430312 52.468265
RightForeArm 15.476197 -0.000000 26.670737
RightHand 2.690624 -0.000000 0.440909
RightHandThumb1 -24.326973 -0.000000 -32.862282
LeftShoulder 9.004832 11.368407 23.601107
LeftArm 77.537753 18.763888 -102.250273
LeftForeArm -40.567633 -0.000000 122.929590
LeftHand -4.098074 0.000000 -0.767360
LeftHandThumb1 -26.253704 0.000000 33.147579
Head 0.165845 40.717816 2.986890
586
root 2.588175 36.989915 2.901014 -3.394474 -2.876638 2.251276
RightUpLeg 11.042545 -5.134027 -5.137714
RightLeg -4.756465 -0.000000 0.000000
RightFoot -13.016650 -16.019796 15.626912
RightToeBase 14.798262 -0.000000 -0.000000
LeftUpLeg 10.137634 2.397931 0.320215
LeftLeg -3.119462 -0.000000 0.000000
LeftFoot -9.921587 13.322370 -16.776462
LeftToeBase 9.424835 -0.000000 -0.000000
Spine 1.939149 -24.254528 -5.534737
RightShoulder 15.234803 -23.671068 -12.078061
RightArm 36.978389 -37.496938 52.149089
RightForeArm 15.259514 0.000000 26.579816
RightHand 2.759166 -0.000000 0.377713
RightHandThumb1 -24.326973 -0.000000 -32.862282
LeftShoulder 9.541726 11.301811 23.818469
LeftArm 77.944739 19.054856 -101.544406
LeftForeArm -40.400823 -0.000000 122.410077
LeftHand -4.060863 -0.000000 -0.833510
LeftHandThumb1 -26.253704 0.000000 33.147579
Head -0.256298 41.412819 2.299098
587
root 2.595571 36.988520 2.903604 -3.434111 -2.775368 2.281982
RightUpLeg 11.107771 -5.135284 -5.175714
RightLeg -4.760832 -0.000000 0.000000
RightFoot -13.067541 -16.109691 15.651822
RightToeBase 14.812537 -0.000000 -0.000000
LeftUpLeg 10.197613 2.366667 0.285808
LeftLeg -3.178009 -0.000000 0.000000
LeftFoot -9.861664 13.255939 -16.748289
LeftToeBase 9.381669 -0.000000 -0.000000
Spine 2.004471 -24.756065 -5.572957
RightShoulder 15.248798 -23.516801 -12.033343
RightArm 37.321523 -37.460958 51.958994
RightForeArm 14.986494 -0.000000 26.553072
RightHand 2.726411 -0.000000 0.248983
RightHandThumb1 -24.326973 -0.000000 -32.862282
LeftShoulder 9.748560 11.399042 23.954501
LeftArm 78.375846 19.260206 -100.876890
LeftForeArm -40.356094 -0.000000 121.914092
LeftHand -3.931308 -0.000000 -0.914710
LeftHandThumb1 -26.253704 0.000000 33.147579
Head -0.725942 42.226097 1.459029
588
root 2.602047 36.988652 2.907281 -3.447615 -2.700775 2.320141
RightUpLeg 11.150877 -5.046106 -5.204856
RightLeg -4.780762 -0.000000 0.000000
RightFoot -13.126295 -16.282375 15.670266
RightToeBase 14.789899 -0.000000 -0.000000
LeftUpLeg 10.238310 2.411956 0.248801
LeftLeg -3.243396 -0.000000 0.000000
LeftFoot -9.780373 13.164843 -16.720150
LeftToeBase 9.375672 -0.000000 -0.000000
Spine 2.025975 -25.296382 -5.615857
RightShoulder 15.308597 -23.378017 -11.975833
RightArm 37.581239 -37.366578 51.835794
RightForeArm 14.733758 -0.000000 26.581296
RightHand 2.705023 -0.000000 0.542105
RightHandThumb1 -24.326973 -0.000000 -32.862282
LeftShoulder 9.872552 11.402273 24.081983
LeftArm 78.633655 19.371422 -100.321630
LeftForeArm -40.103972 -0.000000 121.473408
LeftHand -3.964073 0.000000 -0.605328
LeftHandThumb1 -26.253704 0.000000 33.147579
Head -1.266588 43.001299 0.531842
589
root 2.608704 36.989324 2.910204 -3.449941 -2.642539 2.344525
RightUpLeg 11.178007 -4.940146 -5.223054
RightLeg -4.796070 -0.000000 0.000000
RightFoot -13.179185 -16.399738 15.778576
RightToeBase 14.796587 -0.000000 -0.000000
LeftUpLeg 10.248272 2.366409 0.214591
LeftLeg -3.272184 -0.000000 0.000000
LeftFoot -9.745556 13.160980 -16.716674
LeftToeBase 9.412535 -0.000000 -0.000000
Spine 2.035793 -25.759551 -5.619094
RightShoulder 15.308325 -23.232410 -11.878596
RightArm 37.719355 -37.243050 51.793437
RightForeArm 14.454128 -0.000000 26.704573
RightHand 2.669289 -0.000000 0.342891
RightHandThumb1 -24.326973 -0.000000 -32.862282
LeftShoulder 9.982411 11.304064 24.153333
LeftArm 78.822306 19.460658 -99.837934
LeftForeArm -39.890326 -0.000000 121.002346
LeftHand -3.901965 -0.000000 -0.242845
LeftHandThumb1 -26.253704 0.000000 33.147579
Head -1.763773 43.777910 -0.364783
590
root 2.615367 36.989529 2.910472 -3.436323 -2.614626 2.369086
RightUpLeg 11.176364 -4.904439 -5.250956
RightLeg -4.811169 -0.000000 0.000000
RightFoot -13.201958 -16.438899 15.817032
RightToeBase 14.828461 -0.000000 -0.000000
LeftUpLeg 10.243412 2.358640 0.182331
LeftLeg -3.302110 -0.000000 0.000000
LeftFoot -9.714993 13.133486 -16.747887
LeftToeBase 9.440673 -0.000000 -0.000000
Spine 2.027249 -26.137538 -5.615543
RightShoulder 15.257649 -23.138843 -11.768556
RightArm 37.816800 -37.036265 51.803747
RightForeArm 14.280037 -0.000000 26.877694
RightHand 2.746326 -0.000000 0.217165
RightHandThumb1 -24.326973 -0.000000 -32.862282
LeftShoulder 10.134078 11.257576 24.256266
LeftArm 79.057626 19.514952 -99.441015
LeftForeArm -39.843068 0.000000 120.577266
LeftHand -4.007858 -0.000000 -0.060161
LeftHandThumb1 -26.253704 0.000000 33.147579
Head -2.246233 44.535028 -1.152328
591
root 2.621491 36.988786 2.915471 -3.460939 -2.597095 2.390780
RightUpLeg 11.229960 -4.650786 -5.246101
RightLeg -4.843499 -0.000000 0.000000
RightFoot -13.276796 -16.685040 15.887014
RightToeBase 14.841994 -0.000000 -0.000000
LeftUpLeg 10.290843 2.329245 0.149738
LeftLeg -3.334301 -0.000000 0.000000
LeftFoot -9.698386 13.139124 -16.743881
LeftToeBase 9.357291 -0.000000 -0.000000
Spine 2.051838 -26.493209 -5.623159
RightShoulder 15.203222 -23.097096 -11.674319
RightArm 37.910868 -36.767823 51.857720
RightForeArm 14.314316 -0.000000 27.085159
RightHand 2.751814 -0.000000 0.174578
RightHandThumb1 -24.326973 -0.000000 -32.862282
LeftShoulder 10.254919 11.243642 24.349480
LeftArm 79.302381 19.535023 -99.107332
LeftForeArm -39.990511 -0.000000 120.151428
LeftHand -4.144959 -0.000000 0.174967
LeftHandThumb1 -26.253704 0.000000 33.147579
Head -2.675622 45.480993 -1.906962
